# 3ds Max Wavefront OBJ Exporter v0.97b - (c)2007 guruware
# File Created: 08.04.2013 14:17:19

mtllib HSM0031.mtl

#
# object Vase_Low
#

v  -6.3744 6.9976 0.0481
v  -7.8277 3.4890 0.0481
v  -8.9968 3.4890 7.0552
v  -7.2011 7.8242 7.0552
v  4.0918 3.4890 12.7228
v  3.2652 3.4890 7.0552
v  1.4694 7.8242 7.0552
v  2.0539 8.4087 12.7228
v  -2.8658 9.6200 7.0552
v  -2.8658 10.4466 12.7228
v  -7.7855 8.4087 12.7228
v  -9.8234 3.4890 12.7228
v  -7.2010 -0.8463 7.0552
v  -7.7855 -1.4307 12.7228
v  -2.8658 -2.6420 7.0552
v  -2.8658 -3.4686 12.7228
v  1.4694 -0.8463 7.0552
v  2.0539 -1.4307 12.7228
v  2.2076 8.5624 17.9268
v  4.3090 3.4890 17.9268
v  -2.8658 10.6638 17.9268
v  -7.9392 8.5624 17.9268
v  -10.0406 3.4890 17.9268
v  -7.9392 -1.5844 17.9268
v  -2.8658 -3.6858 17.9268
v  2.2076 -1.5844 17.9268
v  3.5275 3.4890 28.0765
v  4.0783 3.4890 23.3777
v  2.0444 8.3992 23.3777
v  1.6550 8.0098 28.0765
v  -2.8658 10.4331 23.3777
v  -2.8658 9.8823 28.0765
v  -7.7760 8.3992 23.3777
v  -7.3866 8.0098 28.0765
v  -9.8099 3.4890 23.3777
v  -9.2591 3.4890 28.0765
v  -7.7760 -1.4212 23.3777
v  -7.3866 -1.0318 28.0765
v  -2.8658 -3.4551 23.3777
v  -2.8658 -2.9043 28.0765
v  2.0444 -1.4212 23.3777
v  1.6550 -1.0318 28.0765
v  0.6428 6.9976 35.0836
v  2.0961 3.4890 35.0836
v  -2.8658 8.4509 35.0836
v  -7.8277 3.4890 35.0836
v  -6.3744 6.9976 35.0836
v  -2.8658 -1.4729 35.0836
v  0.6428 -0.0196 35.0836
v  2.0961 3.4890 0.0481
v  -2.8658 -1.4729 0.0481
v  -6.3744 -0.0196 0.0481
v  -2.8658 8.4509 0.0481
v  0.6428 6.9976 0.0481
v  0.6428 -0.0196 0.0481
v  -5.8613 6.4845 1.9483
v  0.1297 0.4935 1.9483
v  0.1297 6.4845 1.9483
v  -2.8658 7.7252 1.9483
v  -5.8613 0.4935 1.9483
v  -7.1020 3.4890 1.9483
v  -2.8658 -0.7472 1.9483
v  1.3704 3.4890 1.9483
v  -6.3744 -0.0196 35.0836
v  1.3704 3.4890 35.0836
v  0.1297 6.4845 35.0836
v  -2.8658 7.7252 35.0836
v  -5.8613 6.4845 35.0836
v  -7.1020 3.4890 35.0836
v  -5.8613 0.4935 35.0836
v  -2.8658 -0.7472 35.0836
v  0.1297 0.4935 35.0836
v  0.1297 6.4845 25.5575
v  1.3704 3.4890 25.5575
v  -2.8658 7.7252 25.5575
v  -5.8613 6.4845 25.5575
v  -7.1020 3.4890 25.5575
v  -5.8613 0.4935 25.5575
v  -2.8658 -0.7472 25.5575
v  0.1297 0.4935 25.5575
v  0.1297 6.4845 2.5099
v  1.3704 3.4890 2.5099
v  -2.8658 7.7252 2.5099
v  -5.8613 6.4845 2.5099
v  -7.1020 3.4890 2.5099
v  -5.8613 0.4935 2.5099
v  -2.8658 -0.7472 2.5099
v  0.1297 0.4935 2.5099
v  0.1297 6.4845 14.4638
v  1.3704 3.4890 14.4638
v  -2.8658 7.7252 14.4638
v  -5.8613 6.4845 14.4638
v  -7.1020 3.4890 14.4638
v  -5.8613 0.4935 14.4638
v  -2.8658 -0.7472 14.4638
v  0.1297 0.4935 14.4638
# 96 vertices

vn -0.6961 0.6961 -0.1760
vn -0.9844 0.0000 -0.1760
vn -0.9863 0.0000 -0.1647
vn -0.6974 0.6974 -0.1647
vn 0.9951 0.0000 -0.0984
vn 0.9863 0.0000 -0.1647
vn 0.6974 0.6974 -0.1647
vn 0.7037 0.7037 -0.0984
vn 0.0000 0.9863 -0.1647
vn 0.0000 0.9951 -0.0984
vn -0.7037 0.7037 -0.0984
vn -0.9951 0.0000 -0.0984
vn -0.6974 -0.6974 -0.1647
vn -0.7037 -0.7037 -0.0984
vn 0.0000 -0.9863 -0.1647
vn 0.0000 -0.9951 -0.0984
vn 0.6974 -0.6974 -0.1647
vn 0.7037 -0.7037 -0.0984
vn 0.7071 0.7071 0.0003
vn 1.0000 -0.0000 0.0003
vn 0.0000 1.0000 0.0003
vn -0.7071 0.7071 0.0003
vn -1.0000 -0.0000 0.0003
vn -0.7071 -0.7071 0.0003
vn 0.0000 -1.0000 0.0003
vn 0.7071 -0.7071 0.0003
vn 0.9859 -0.0000 0.1676
vn 0.9964 -0.0000 0.0842
vn 0.7046 0.7046 0.0842
vn 0.6971 0.6971 0.1676
vn 0.0000 0.9964 0.0842
vn 0.0000 0.9859 0.1676
vn -0.7046 0.7046 0.0842
vn -0.6971 0.6971 0.1676
vn -0.9964 -0.0000 0.0842
vn -0.9859 -0.0000 0.1676
vn -0.7046 -0.7046 0.0842
vn -0.6971 -0.6971 0.1676
vn 0.0000 -0.9964 0.0842
vn 0.0000 -0.9859 0.1676
vn 0.7046 -0.7046 0.0842
vn 0.6971 -0.6971 0.1676
vn 0.6908 0.6908 0.2138
vn 0.9769 -0.0000 0.2138
vn 0.0000 0.9769 0.2138
vn -0.9769 -0.0000 0.2138
vn -0.6908 0.6908 0.2138
vn 0.0000 -0.9769 0.2138
vn 0.6908 -0.6908 0.2138
vn 0.0000 0.0000 -1.0000
vn 0.0000 -0.0000 1.0000
vn -0.6908 -0.6908 0.2138
vn -0.9239 -0.3827 -0.0000
vn -0.3827 -0.9239 -0.0000
vn 0.3827 -0.9239 -0.0000
vn 0.9239 -0.3827 -0.0000
vn 0.9239 0.3827 0.0000
vn 0.3827 0.9239 0.0000
vn -0.3827 0.9239 0.0000
vn -0.9239 0.3827 0.0000
vn 0.6961 0.6961 -0.1760
vn 0.9844 0.0000 -0.1760
vn 0.0000 0.9844 -0.1760
vn -0.6961 -0.6961 -0.1760
vn 0.0000 -0.9844 -0.1760
vn 0.6961 -0.6961 -0.1760
# 66 vertex normals

vt 0.0025 0.6639 0.0000
vt 0.0025 0.6135 0.0000
vt 0.0964 0.6135 0.0000
vt 0.0964 0.6758 0.0000
vt 0.1724 0.7680 0.0000
vt 0.0964 0.7680 0.0000
vt 0.0964 0.7057 0.0000
vt 0.1724 0.6973 0.0000
vt 0.6509 0.6842 0.0000
vt 0.5749 0.6758 0.0000
vt 0.5749 0.6135 0.0000
vt 0.6509 0.6135 0.0000
vt 0.5749 0.5512 0.0000
vt 0.6509 0.5428 0.0000
vt 0.1724 0.6842 0.0000
vt 0.1724 0.6135 0.0000
vt 0.0964 0.5512 0.0000
vt 0.1724 0.5428 0.0000
vt 0.1724 0.9931 0.0000
vt 0.0964 0.9847 0.0000
vt 0.0964 0.9224 0.0000
vt 0.1724 0.9224 0.0000
vt 0.0964 0.8601 0.0000
vt 0.1724 0.8517 0.0000
vt 0.1724 0.8386 0.0000
vt 0.0964 0.8302 0.0000
vt 0.2422 0.6951 0.0000
vt 0.2422 0.7680 0.0000
vt 0.7206 0.6135 0.0000
vt 0.7206 0.6864 0.0000
vt 0.7206 0.5406 0.0000
vt 0.2422 0.6135 0.0000
vt 0.2422 0.6864 0.0000
vt 0.2422 0.5406 0.0000
vt 0.2422 0.9224 0.0000
vt 0.2422 0.9953 0.0000
vt 0.2422 0.8495 0.0000
vt 0.2422 0.8408 0.0000
vt 0.3783 0.7680 0.0000
vt 0.3153 0.7680 0.0000
vt 0.3153 0.6974 0.0000
vt 0.3783 0.7030 0.0000
vt 0.8567 0.6784 0.0000
vt 0.7937 0.6840 0.0000
vt 0.7937 0.6135 0.0000
vt 0.8567 0.6135 0.0000
vt 0.7937 0.5430 0.0000
vt 0.8567 0.5486 0.0000
vt 0.3783 0.6784 0.0000
vt 0.3153 0.6840 0.0000
vt 0.3153 0.6135 0.0000
vt 0.3783 0.6135 0.0000
vt 0.3153 0.5430 0.0000
vt 0.3783 0.5486 0.0000
vt 0.3783 0.9874 0.0000
vt 0.3153 0.9930 0.0000
vt 0.3153 0.9224 0.0000
vt 0.3783 0.9224 0.0000
vt 0.3153 0.8519 0.0000
vt 0.3783 0.8575 0.0000
vt 0.3783 0.8329 0.0000
vt 0.3153 0.8385 0.0000
vt 0.4722 0.7176 0.0000
vt 0.4722 0.7680 0.0000
vt 0.9507 0.6135 0.0000
vt 0.9507 0.6639 0.0000
vt 0.4722 0.6135 0.0000
vt 0.4722 0.6639 0.0000
vt 0.4722 0.9224 0.0000
vt 0.4722 0.8720 0.0000
vt 0.4722 0.8184 0.0000
vt 0.5873 0.3264 0.0000
vt 0.6406 0.4587 0.0000
vt 0.5478 0.4192 0.0000
vt 0.5484 0.3646 0.0000
vt 0.6800 0.3659 0.0000
vt 0.6419 0.3270 0.0000
vt 0.6795 0.4205 0.0000
vt 0.5860 0.4581 0.0000
vt 0.4814 0.9172 0.0000
vt 0.5934 0.9649 0.0000
vt 0.5135 0.9970 0.0000
vt 0.4809 0.9638 0.0000
vt 0.5612 0.8851 0.0000
vt 0.5146 0.8846 0.0000
vt 0.5938 0.9183 0.0000
vt 0.5601 0.9975 0.0000
vt 0.9507 0.5631 0.0000
vt 0.4722 0.5631 0.0000
vt 0.4722 0.9728 0.0000
vt 0.6367 0.3146 0.0000
vt 0.6406 0.3243 0.0000
vt 0.5860 0.3237 0.0000
vt 0.5901 0.3141 0.0000
vt 0.5478 0.2848 0.0000
vt 0.5575 0.2809 0.0000
vt 0.5484 0.2302 0.0000
vt 0.5579 0.2343 0.0000
vt 0.5873 0.1920 0.0000
vt 0.5912 0.2017 0.0000
vt 0.6419 0.1926 0.0000
vt 0.6378 0.2022 0.0000
vt 0.6800 0.2315 0.0000
vt 0.6704 0.2354 0.0000
vt 0.6795 0.2861 0.0000
vt 0.6699 0.2820 0.0000
vt 0.9252 0.7381 0.0000
vt 0.9252 0.7811 0.0000
vt 0.7975 0.7811 0.0000
vt 0.7975 0.7381 0.0000
vt 0.9252 0.7898 0.0000
vt 0.9252 0.8329 0.0000
vt 0.7975 0.8329 0.0000
vt 0.7975 0.7898 0.0000
vt 0.9252 0.8759 0.0000
vt 0.7975 0.8759 0.0000
vt 0.9921 0.0025 0.0000
vt 0.9921 0.0455 0.0000
vt 0.8644 0.0455 0.0000
vt 0.8644 0.0025 0.0000
vt 0.9921 0.0886 0.0000
vt 0.8644 0.0886 0.0000
vt 0.9921 0.0973 0.0000
vt 0.9921 0.1403 0.0000
vt 0.8644 0.1403 0.0000
vt 0.8644 0.0973 0.0000
vt 0.9921 0.1833 0.0000
vt 0.8644 0.1833 0.0000
vt 0.9252 0.6951 0.0000
vt 0.7975 0.6951 0.0000
vt 0.0025 0.7176 0.0000
vt 0.0025 0.7680 0.0000
vt 0.4809 0.6135 0.0000
vt 0.4809 0.6639 0.0000
vt 0.4809 0.5631 0.0000
vt 0.0025 0.5631 0.0000
vt 0.0025 0.9728 0.0000
vt 0.0025 0.9224 0.0000
vt 0.0025 0.8720 0.0000
vt 0.0025 0.8184 0.0000
vt 0.4885 0.7811 0.0000
vt 0.4809 0.7811 0.0000
vt 0.4809 0.7381 0.0000
vt 0.4885 0.7381 0.0000
vt 0.4885 0.8329 0.0000
vt 0.4809 0.8329 0.0000
vt 0.4809 0.7898 0.0000
vt 0.4885 0.7898 0.0000
vt 0.4885 0.8759 0.0000
vt 0.4809 0.8759 0.0000
vt 0.5554 0.0455 0.0000
vt 0.5478 0.0455 0.0000
vt 0.5478 0.0025 0.0000
vt 0.5554 0.0025 0.0000
vt 0.5554 0.0886 0.0000
vt 0.5478 0.0886 0.0000
vt 0.5554 0.1403 0.0000
vt 0.5478 0.1403 0.0000
vt 0.5478 0.0973 0.0000
vt 0.5554 0.0973 0.0000
vt 0.5554 0.1833 0.0000
vt 0.5478 0.1833 0.0000
vt 0.4809 0.6951 0.0000
vt 0.4885 0.6951 0.0000
vt 0.6487 0.7811 0.0000
vt 0.6487 0.7381 0.0000
vt 0.6487 0.8329 0.0000
vt 0.6487 0.7898 0.0000
vt 0.6487 0.8759 0.0000
vt 0.7156 0.0455 0.0000
vt 0.7156 0.0025 0.0000
vt 0.7156 0.0886 0.0000
vt 0.7156 0.1403 0.0000
vt 0.7156 0.0973 0.0000
vt 0.7156 0.1833 0.0000
vt 0.6487 0.6951 0.0000
# 176 texture coords

g Vase_Low
usemtl _vases_LT_L04_2Vase_Low_Baked_Mat
s 8
f 1/1/1 2/2/2 3/3/3 4/4/4 
f 5/5/5 6/6/6 7/7/7 8/8/8 
f 8/9/8 7/10/7 9/11/9 10/12/10 
f 10/12/10 9/11/9 4/13/4 11/14/11 
f 11/15/11 4/4/4 3/3/3 12/16/12 
f 12/16/12 3/3/3 13/17/13 14/18/14 
f 14/19/14 13/20/13 15/21/15 16/22/16 
f 16/22/16 15/21/15 17/23/17 18/24/18 
f 18/25/18 17/26/17 6/6/6 5/5/5 
f 5/5/5 8/8/8 19/27/19 20/28/20 
f 8/9/8 10/12/10 21/29/21 19/30/19 
f 10/12/10 11/14/11 22/31/22 21/29/21 
f 11/15/11 12/16/12 23/32/23 22/33/22 
f 12/16/12 14/18/14 24/34/24 23/32/23 
f 14/19/14 16/22/16 25/35/25 24/36/24 
f 16/22/16 18/24/18 26/37/26 25/35/25 
f 18/25/18 5/5/5 20/28/20 26/38/26 
f 27/39/27 28/40/28 29/41/29 30/42/30 
f 30/43/30 29/44/29 31/45/31 32/46/32 
f 32/46/32 31/45/31 33/47/33 34/48/34 
f 34/49/34 33/50/33 35/51/35 36/52/36 
f 36/52/36 35/51/35 37/53/37 38/54/38 
f 38/55/38 37/56/37 39/57/39 40/58/40 
f 40/58/40 39/57/39 41/59/41 42/60/42 
f 42/61/42 41/62/41 28/40/28 27/39/27 
f 27/39/27 30/42/30 43/63/43 44/64/44 
f 30/43/30 32/46/32 45/65/45 43/66/43 
f 34/49/34 36/52/36 46/67/46 47/68/47 
f 48/69/48 40/58/40 42/60/42 49/70/49 
f 42/61/42 27/39/27 44/64/44 49/71/49 
s 1
f 2/72/50 50/73/50 51/74/50 52/75/50 
f 53/76/50 50/73/50 2/72/50 1/77/50 
f 53/76/50 54/78/50 50/73/50 
f 55/79/50 51/74/50 50/73/50 
f 56/80/51 57/81/51 58/82/51 59/83/51 
f 60/84/51 57/81/51 56/80/51 61/85/51 
f 60/84/51 62/86/51 57/81/51 
f 63/87/51 58/82/51 57/81/51 
s 8
f 34/48/34 47/88/47 45/65/45 32/46/32 
f 38/54/38 64/89/52 46/67/46 36/52/36 
f 40/58/40 48/69/48 64/90/52 38/55/38 
s off
f 65/91/51 44/92/51 43/93/51 66/94/51 
f 66/94/51 43/93/51 45/95/51 67/96/51 
f 67/96/51 45/95/51 47/97/51 68/98/51 
f 68/98/51 47/97/51 46/99/51 69/100/51 
f 69/100/51 46/99/51 64/101/51 70/102/51 
f 70/102/51 64/101/51 48/103/51 71/104/51 
f 71/104/51 48/103/51 49/105/51 72/106/51 
f 72/106/51 49/105/51 44/92/51 65/91/51 
f 65/107/53 66/108/53 73/109/53 74/110/53 
f 66/111/54 67/112/54 75/113/54 73/114/54 
f 67/112/55 68/115/55 76/116/55 75/113/55 
f 68/117/56 69/118/56 77/119/56 76/120/56 
f 69/118/57 70/121/57 78/122/57 77/119/57 
f 70/123/58 71/124/58 79/125/58 78/126/58 
f 71/124/59 72/127/59 80/128/59 79/125/59 
f 72/129/60 65/107/60 74/110/60 80/130/60 
s 8
f 54/131/61 7/7/7 6/6/6 50/132/62 
f 53/133/63 9/11/9 7/10/7 54/134/61 
f 1/135/1 4/13/4 9/11/9 53/133/63 
f 52/136/64 13/17/13 3/3/3 2/2/2 
f 15/21/15 13/20/13 52/137/64 51/138/65 
f 55/139/66 17/23/17 15/21/15 51/138/65 
f 50/132/62 6/6/6 17/26/17 55/140/66 
f 19/27/19 29/41/29 28/40/28 20/28/20 
f 21/29/21 31/45/31 29/44/29 19/30/19 
f 22/31/22 33/47/33 31/45/31 21/29/21 
f 23/32/23 35/51/35 33/50/33 22/33/22 
f 24/34/24 37/53/37 35/51/35 23/32/23 
f 25/35/25 39/57/39 37/56/37 24/36/24 
f 26/37/26 41/59/41 39/57/39 25/35/25 
f 20/28/20 28/40/28 41/62/41 26/38/26 
s off
f 81/141/53 58/142/53 63/143/53 82/144/53 
f 83/145/54 59/146/54 58/147/54 81/148/54 
f 84/149/55 56/150/55 59/146/55 83/145/55 
f 85/151/56 61/152/56 56/153/56 84/154/56 
f 86/155/57 60/156/57 61/152/57 85/151/57 
f 87/157/58 62/158/58 60/159/58 86/160/58 
f 88/161/59 57/162/59 62/158/59 87/157/59 
f 82/144/60 63/143/60 57/163/60 88/164/60 
f 89/165/53 81/141/53 82/144/53 90/166/53 
f 91/167/54 83/145/54 81/148/54 89/168/54 
f 92/169/55 84/149/55 83/145/55 91/167/55 
f 93/170/56 85/151/56 84/154/56 92/171/56 
f 94/172/57 86/155/57 85/151/57 93/170/57 
f 95/173/58 87/157/58 86/160/58 94/174/58 
f 96/175/59 88/161/59 87/157/59 95/173/59 
f 90/166/60 82/144/60 88/164/60 96/176/60 
f 73/109/53 89/165/53 90/166/53 74/110/53 
f 75/113/54 91/167/54 89/168/54 73/114/54 
f 76/116/55 92/169/55 91/167/55 75/113/55 
f 77/119/56 93/170/56 92/171/56 76/120/56 
f 78/122/57 94/172/57 93/170/57 77/119/57 
f 79/125/58 95/173/58 94/174/58 78/126/58 
f 80/128/59 96/175/59 95/173/59 79/125/59 
f 74/110/60 90/166/60 96/176/60 80/130/60 
# 92 polygons - 4 triangles

